<?xml version="1.0" encoding="iso-8859-1"?>
<!-- Generator: Adobe Illustrator 19.0.0, SVG Export Plug-In . SVG Version: 6.00 Build 0)  -->
<svg version="1.1" id="Capa_1" xmlns="http://www.w3.org/2000/svg" xmlns:xlink="http://www.w3.org/1999/xlink" x="0px" y="0px"
	 viewBox="0 0 453.44 453.44" style="enable-background:new 0 0 453.44 453.44;" xml:space="preserve">
<g>
	<g>
		<path d="M383.639,0.024c-0.525,0.013-1.047,0.078-1.559,0.194l-314.44,80c-3.574,0.824-6.129,3.973-6.2,7.64v289.76h113.84v-117
			H278v117.16l113.84,0V7.818C391.728,3.401,388.056-0.088,383.639,0.024z M143.36,222.098h-38.8v-38.84h38.84L143.36,222.098z
			 M143.36,153.538h-38.8v-38.92h38.84L143.36,153.538z M211.8,222.098h-38.84v-38.84h38.84V222.098z M211.8,153.538h-38.84v-38.92
			h38.84V153.538z M280.32,222.098h-38.84v-38.84h38.84V222.098z M280.32,153.458h-38.84v-38.84h38.84V153.458z M348.76,222.018
			h-38.84v-38.84h38.84V222.018z M348.76,153.458h-38.84v-38.84h38.84V153.458z"/>
	</g>
</g>
<g>
	<g>
		<path d="M397.76,389.738h-0.16H55.68C25.001,389.913,0.175,414.74,0,445.418c0,4.418,3.582,8,8,8h437.44c4.418,0,8-3.582,8-8
			C453.265,414.74,428.439,389.913,397.76,389.738z"/>
	</g>
</g>
<g>
</g>
<g>
</g>
<g>
</g>
<g>
</g>
<g>
</g>
<g>
</g>
<g>
</g>
<g>
</g>
<g>
</g>
<g>
</g>
<g>
</g>
<g>
</g>
<g>
</g>
<g>
</g>
<g>
</g>
</svg>
